<svg data-v-fde0c5aa="" xmlns="http://www.w3.org/2000/svg" viewBox="0 0 300 300" class="iconAbove"><!----><defs data-v-fde0c5aa=""><!----></defs><rect data-v-fde0c5aa="" fill="#341952" x="0" y="0" width="300px" height="300px" class="logo-background-square"></rect><defs data-v-fde0c5aa=""><!----></defs><g data-v-fde0c5aa="" id="87bc73ca-b043-4300-a7fb-77cef3b8ef2e" fill="#FFFFFF" transform="matrix(2.1407986018954444,0,0,2.1407986018954444,18.501441004193495,168.74063353654304)"><path d="M1.85 11.98L0.70 1.35L0.70 1.35Q0.70 1.33 0.70 1.31L0.70 1.31L0.70 1.31Q0.70 1.05 0.96 1.05L0.96 1.05L2.30 1.05L2.30 1.05Q2.57 1.05 2.59 1.32L2.59 1.32L3.14 7.87L3.21 7.87L4.59 1.30L4.59 1.30Q4.66 1.05 4.90 1.05L4.90 1.05L5.74 1.05L5.74 1.05Q5.99 1.05 6.05 1.30L6.05 1.30L7.42 7.87L7.49 7.87L8.07 1.32L8.07 1.32Q8.09 1.05 8.36 1.05L8.36 1.05L9.69 1.05L9.69 1.05Q9.95 1.05 9.95 1.31L9.95 1.31L9.95 1.31Q9.95 1.33 9.95 1.35L9.95 1.35L8.75 11.98L8.75 11.98Q8.73 12.25 8.46 12.25L8.46 12.25L7.08 12.25L7.08 12.25Q6.84 12.25 6.77 12.00L6.77 12.00L5.32 5.67L3.85 12.01L3.85 12.01Q3.79 12.25 3.54 12.25L3.54 12.25L2.14 12.25L2.14 12.25Q1.87 12.25 1.85 11.98L1.85 11.98ZM11.35 12.02L11.35 12.02L11.35 2.67L11.35 2.67Q11.35 2.57 11.41 2.51L11.41 2.51L11.41 2.51Q11.47 2.45 11.57 2.45L11.57 2.45L14.94 2.45L14.94 2.45Q15.93 2.45 16.44 2.96L16.44 2.96L16.44 2.96Q16.95 3.47 16.95 4.46L16.95 4.46L16.95 7.28L16.95 7.28Q16.95 8.50 16.17 8.99L16.17 8.99L16.89 12.00L16.89 12.00Q16.95 12.25 16.70 12.25L16.70 12.25L15.33 12.25L15.33 12.25Q15.13 12.25 15.09 12.05L15.09 12.05L14.42 9.30L13.17 9.30L13.17 12.02L13.17 12.02Q13.17 12.13 13.11 12.19L13.11 12.19L13.11 12.19Q13.05 12.25 12.95 12.25L12.95 12.25L11.57 12.25L11.57 12.25Q11.47 12.25 11.41 12.19L11.41 12.19L11.41 12.19Q11.35 12.13 11.35 12.02ZM13.17 4.26L13.17 7.49L14.57 7.49L14.57 7.49Q15.13 7.49 15.13 6.93L15.13 6.93L15.13 4.82L15.13 4.82Q15.13 4.26 14.57 4.26L14.57 4.26L13.17 4.26ZM18.35 12.02L18.35 12.02L18.35 2.67L18.35 2.67Q18.35 2.57 18.41 2.51L18.41 2.51L18.41 2.51Q18.46 2.45 18.56 2.45L18.56 2.45L23.71 2.45L23.71 2.45Q23.94 2.45 23.94 2.67L23.94 2.67L23.94 4.07L23.94 4.07Q23.94 4.31 23.71 4.31L23.71 4.31L20.25 4.31L20.25 6.47L22.89 6.47L22.89 6.47Q23.11 6.47 23.11 6.71L23.11 6.71L23.11 8.09L23.11 8.09Q23.11 8.33 22.89 8.33L22.89 8.33L20.25 8.33L20.25 10.40L23.71 10.40L23.71 10.40Q23.84 10.40 23.89 10.45L23.89 10.45L23.89 10.45Q23.94 10.50 23.94 10.62L23.94 10.62L23.94 12.02L23.94 12.02Q23.94 12.25 23.71 12.25L23.71 12.25L18.56 12.25L18.56 12.25Q18.46 12.25 18.41 12.19L18.41 12.19L18.41 12.19Q18.35 12.13 18.35 12.02ZM24.91 10.23L24.91 10.23L24.91 9.32L24.91 9.32Q24.91 9.10 25.14 9.10L25.14 9.10L26.55 9.10L26.55 9.10Q26.78 9.10 26.78 9.32L26.78 9.32L26.78 9.91L26.78 9.91Q26.78 10.47 27.34 10.47L27.34 10.47L28.09 10.47L28.09 10.47Q28.65 10.47 28.65 9.91L28.65 9.91L28.65 8.50L25.29 7.40L25.29 7.40Q24.91 7.28 24.91 6.89L24.91 6.89L24.91 4.46L24.91 4.46Q24.91 3.48 25.43 2.96L25.43 2.96L25.43 2.96Q25.95 2.45 26.93 2.45L26.93 2.45L28.50 2.45L28.50 2.45Q29.49 2.45 30.00 2.96L30.00 2.96L30.00 2.96Q30.52 3.47 30.52 4.46L30.52 4.46L30.52 5.39L30.52 5.39Q30.52 5.61 30.29 5.61L30.29 5.61L28.88 5.61L28.88 5.61Q28.77 5.61 28.71 5.55L28.71 5.55L28.71 5.55Q28.65 5.49 28.65 5.39L28.65 5.39L28.65 4.80L28.65 4.80Q28.65 4.25 28.09 4.25L28.09 4.25L27.32 4.25L27.32 4.25Q27.06 4.25 26.91 4.39L26.91 4.39L26.91 4.39Q26.76 4.53 26.76 4.80L26.76 4.80L26.76 6.00L30.15 7.08L30.15 7.08Q30.52 7.21 30.52 7.60L30.52 7.60L30.52 10.23L30.52 10.23Q30.52 11.22 30.00 11.74L30.00 11.74L30.00 11.74Q29.49 12.25 28.50 12.25L28.50 12.25L26.93 12.25L26.93 12.25Q25.95 12.25 25.43 11.73L25.43 11.73L25.43 11.73Q24.91 11.22 24.91 10.23ZM31.21 2.67L31.21 4.07L31.21 4.07Q31.21 4.18 31.27 4.24L31.27 4.24L31.27 4.24Q31.34 4.30 31.44 4.30L31.44 4.30L33.07 4.30L33.07 12.02L33.07 12.02Q33.07 12.25 33.29 12.25L33.29 12.25L34.75 12.25L34.75 12.25Q34.97 12.25 34.97 12.02L34.97 12.02L34.97 4.30L36.59 4.30L36.59 4.30Q36.82 4.30 36.82 4.07L36.82 4.07L36.82 2.67L36.82 2.67Q36.82 2.45 36.59 2.45L36.59 2.45L31.44 2.45L31.44 2.45Q31.34 2.45 31.27 2.51L31.27 2.51L31.27 2.51Q31.21 2.57 31.21 2.67L31.21 2.67ZM37.93 2.67L37.93 12.02L37.93 12.02Q37.93 12.25 38.16 12.25L38.16 12.25L42.61 12.25L42.61 12.25Q42.83 12.25 42.83 12.02L42.83 12.02L42.83 10.62L42.83 10.62Q42.83 10.40 42.61 10.40L42.61 10.40L39.84 10.40L39.84 2.67L39.84 2.67Q39.84 2.45 39.61 2.45L39.61 2.45L38.16 2.45L38.16 2.45Q38.06 2.45 37.99 2.51L37.99 2.51L37.99 2.51Q37.93 2.57 37.93 2.67L37.93 2.67ZM43.81 2.67L43.81 12.02L43.81 12.02Q43.81 12.25 44.04 12.25L44.04 12.25L45.49 12.25L45.49 12.25Q45.60 12.25 45.66 12.19L45.66 12.19L45.66 12.19Q45.72 12.13 45.72 12.02L45.72 12.02L45.72 2.67L45.72 2.67Q45.72 2.57 45.66 2.51L45.66 2.51L45.66 2.51Q45.60 2.45 45.49 2.45L45.49 2.45L44.04 2.45L44.04 2.45Q43.81 2.45 43.81 2.67L43.81 2.67ZM47.11 12.02L47.11 12.02L47.11 2.67L47.11 2.67Q47.11 2.57 47.17 2.51L47.17 2.51L47.17 2.51Q47.24 2.45 47.34 2.45L47.34 2.45L48.45 2.45L48.45 2.45Q48.62 2.45 48.70 2.63L48.70 2.63L51.33 7.98L51.33 2.67L51.33 2.67Q51.33 2.45 51.56 2.45L51.56 2.45L52.87 2.45L52.87 2.45Q52.97 2.45 53.03 2.51L53.03 2.51L53.03 2.51Q53.09 2.57 53.09 2.67L53.09 2.67L53.09 12.02L53.09 12.02Q53.09 12.13 53.03 12.19L53.03 12.19L53.03 12.19Q52.97 12.25 52.87 12.25L52.87 12.25L51.76 12.25L51.76 12.25Q51.59 12.25 51.51 12.07L51.51 12.07L48.88 6.72L48.88 12.02L48.88 12.02Q48.88 12.25 48.66 12.25L48.66 12.25L47.34 12.25L47.34 12.25Q47.24 12.25 47.17 12.19L47.17 12.19L47.17 12.19Q47.11 12.13 47.11 12.02ZM54.49 10.23L54.49 10.23L54.49 4.46L54.49 4.46Q54.49 3.47 55.00 2.96L55.00 2.96L55.00 2.96Q55.51 2.45 56.51 2.45L56.51 2.45L58.08 2.45L58.08 2.45Q59.06 2.45 59.58 2.96L59.58 2.96L59.58 2.96Q60.09 3.48 60.09 4.46L60.09 4.46L60.09 5.50L60.09 5.50Q60.09 5.61 60.03 5.67L60.03 5.67L60.03 5.67Q59.97 5.73 59.87 5.73L59.87 5.73L58.55 5.73L58.55 5.73Q58.33 5.73 58.33 5.50L58.33 5.50L58.33 4.82L58.33 4.82Q58.33 4.26 57.77 4.26L57.77 4.26L56.88 4.26L56.88 4.26Q56.31 4.26 56.31 4.82L56.31 4.82L56.31 9.88L56.31 9.88Q56.31 10.45 56.88 10.45L56.88 10.45L57.77 10.45L57.77 10.45Q58.33 10.45 58.33 9.88L58.33 9.88L58.33 8.67L57.60 8.67L57.60 8.67Q57.37 8.67 57.37 8.44L57.37 8.44L57.37 7.04L57.37 7.04Q57.37 6.82 57.60 6.82L57.60 6.82L59.87 6.82L59.87 6.82Q60.09 6.82 60.09 7.04L60.09 7.04L60.09 10.23L60.09 10.23Q60.09 11.22 59.58 11.73L59.58 11.73L59.58 11.73Q59.06 12.25 58.08 12.25L58.08 12.25L56.51 12.25L56.51 12.25Q55.51 12.25 55.00 11.74L55.00 11.74L55.00 11.74Q54.49 11.22 54.49 10.23ZM66.28 11.98L64.99 2.74L64.99 2.74Q64.98 2.71 64.98 2.67L64.98 2.67L64.98 2.67Q64.98 2.45 65.26 2.45L65.26 2.45L66.58 2.45L66.58 2.45Q66.83 2.45 66.87 2.71L66.87 2.71L67.55 8.57L67.62 8.57L69.00 2.69L69.00 2.69Q69.06 2.45 69.30 2.45L69.30 2.45L70.16 2.45L70.16 2.45Q70.40 2.45 70.46 2.69L70.46 2.69L71.84 8.57L71.91 8.57L72.63 2.71L72.63 2.71Q72.67 2.45 72.92 2.45L72.92 2.45L74.23 2.45L74.23 2.45Q74.50 2.45 74.50 2.67L74.50 2.67L74.50 2.67Q74.50 2.70 74.50 2.74L74.50 2.74L73.15 12.00L73.15 12.00Q73.11 12.25 72.84 12.25L72.84 12.25L71.33 12.25L71.33 12.25Q71.09 12.25 71.03 12.00L71.03 12.00L69.74 6.25L68.43 12.00L68.43 12.00Q68.37 12.25 68.13 12.25L68.13 12.25L66.59 12.25L66.59 12.25Q66.32 12.25 66.28 11.98L66.28 11.98ZM75.44 2.67L75.44 12.02L75.44 12.02Q75.44 12.25 75.67 12.25L75.67 12.25L77.12 12.25L77.12 12.25Q77.23 12.25 77.29 12.19L77.29 12.19L77.29 12.19Q77.35 12.13 77.35 12.02L77.35 12.02L77.35 2.67L77.35 2.67Q77.35 2.57 77.29 2.51L77.29 2.51L77.29 2.51Q77.23 2.45 77.12 2.45L77.12 2.45L75.67 2.45L75.67 2.45Q75.44 2.45 75.44 2.67L75.44 2.67ZM78.33 2.67L78.33 4.07L78.33 4.07Q78.33 4.18 78.39 4.24L78.39 4.24L78.39 4.24Q78.45 4.30 78.55 4.30L78.55 4.30L80.18 4.30L80.18 12.02L80.18 12.02Q80.18 12.25 80.40 12.25L80.40 12.25L81.86 12.25L81.86 12.25Q82.08 12.25 82.08 12.02L82.08 12.02L82.08 4.30L83.71 4.30L83.71 4.30Q83.93 4.30 83.93 4.07L83.93 4.07L83.93 2.67L83.93 2.67Q83.93 2.45 83.71 2.45L83.71 2.45L78.55 2.45L78.55 2.45Q78.45 2.45 78.39 2.51L78.39 2.51L78.39 2.51Q78.33 2.57 78.33 2.67L78.33 2.67ZM85.05 12.02L85.05 12.02L85.05 2.67L85.05 2.67Q85.05 2.45 85.29 2.45L85.29 2.45L86.73 2.45L86.73 2.45Q86.83 2.45 86.89 2.51L86.89 2.51L86.89 2.51Q86.95 2.57 86.95 2.67L86.95 2.67L86.95 6.45L88.74 6.45L88.74 2.67L88.74 2.67Q88.74 2.57 88.81 2.51L88.81 2.51L88.81 2.51Q88.87 2.45 88.97 2.45L88.97 2.45L90.41 2.45L90.41 2.45Q90.65 2.45 90.65 2.67L90.65 2.67L90.65 12.02L90.65 12.02Q90.65 12.25 90.41 12.25L90.41 12.25L88.97 12.25L88.97 12.25Q88.87 12.25 88.81 12.19L88.81 12.19L88.81 12.19Q88.74 12.13 88.74 12.02L88.74 12.02L88.74 8.30L86.95 8.30L86.95 12.02L86.95 12.02Q86.95 12.13 86.89 12.19L86.89 12.19L86.89 12.19Q86.83 12.25 86.73 12.25L86.73 12.25L85.29 12.25L85.29 12.25Q85.05 12.25 85.05 12.02ZM95.55 10.23L95.55 10.23L95.55 3.07L95.55 3.07Q95.55 2.08 96.07 1.57L96.07 1.57L96.07 1.57Q96.58 1.05 97.58 1.05L97.58 1.05L99.15 1.05L99.15 1.05Q100.13 1.05 100.65 1.57L100.65 1.57L100.65 1.57Q101.17 2.08 101.17 3.07L101.17 3.07L101.17 4.58L101.17 4.58Q101.17 4.80 100.94 4.80L100.94 4.80L99.54 4.80L99.54 4.80Q99.31 4.80 99.31 4.58L99.31 4.58L99.31 3.46L99.31 3.46Q99.31 2.90 98.75 2.90L98.75 2.90L98.03 2.90L98.03 2.90Q97.47 2.90 97.47 3.46L97.47 3.46L97.47 9.84L97.47 9.84Q97.47 10.40 98.03 10.40L98.03 10.40L98.75 10.40L98.75 10.40Q99.31 10.40 99.31 9.84L99.31 9.84L99.31 8.72L99.31 8.72Q99.31 8.50 99.54 8.50L99.54 8.50L100.94 8.50L100.94 8.50Q101.04 8.50 101.10 8.56L101.10 8.56L101.10 8.56Q101.17 8.62 101.17 8.72L101.17 8.72L101.17 10.23L101.17 10.23Q101.17 11.22 100.65 11.73L100.65 11.73L100.65 11.73Q100.13 12.25 99.15 12.25L99.15 12.25L97.58 12.25L97.58 12.25Q96.58 12.25 96.07 11.74L96.07 11.74L96.07 11.74Q95.55 11.22 95.55 10.23ZM102.56 10.23L102.56 10.23L102.56 4.46L102.56 4.46Q102.56 3.47 103.07 2.96L103.07 2.96L103.07 2.96Q103.58 2.45 104.58 2.45L104.58 2.45L106.15 2.45L106.15 2.45Q107.14 2.45 107.65 2.96L107.65 2.96L107.65 2.96Q108.17 3.47 108.17 4.46L108.17 4.46L108.17 10.23L108.17 10.23Q108.17 11.22 107.65 11.74L107.65 11.74L107.65 11.74Q107.14 12.25 106.15 12.25L106.15 12.25L104.58 12.25L104.58 12.25Q103.58 12.25 103.07 11.74L103.07 11.74L103.07 11.74Q102.56 11.22 102.56 10.23ZM104.38 4.82L104.38 9.88L104.38 9.88Q104.38 10.45 104.95 10.45L104.95 10.45L105.84 10.45L105.84 10.45Q106.40 10.45 106.40 9.88L106.40 9.88L106.40 4.82L106.40 4.82Q106.40 4.26 105.84 4.26L105.84 4.26L104.95 4.26L104.95 4.26Q104.38 4.26 104.38 4.82L104.38 4.82ZM109.56 12.02L109.56 12.02L109.56 2.67L109.56 2.67Q109.56 2.45 109.79 2.45L109.79 2.45L113.15 2.45L113.15 2.45Q114.14 2.45 114.65 2.97L114.65 2.97L114.65 2.97Q115.17 3.49 115.17 4.48L115.17 4.48L115.17 10.23L115.17 10.23Q115.17 11.22 114.65 11.74L114.65 11.74L114.65 11.74Q114.14 12.25 113.15 12.25L113.15 12.25L109.79 12.25L109.79 12.25Q109.56 12.25 109.56 12.02ZM111.47 4.30L111.47 10.40L112.75 10.40L112.75 10.40Q113.31 10.40 113.31 9.84L113.31 9.84L113.31 4.87L113.31 4.87Q113.31 4.30 112.75 4.30L112.75 4.30L111.47 4.30ZM116.56 12.02L116.56 12.02L116.56 2.67L116.56 2.67Q116.56 2.57 116.62 2.51L116.62 2.51L116.62 2.51Q116.68 2.45 116.77 2.45L116.77 2.45L121.93 2.45L121.93 2.45Q122.15 2.45 122.15 2.67L122.15 2.67L122.15 4.07L122.15 4.07Q122.15 4.31 121.93 4.31L121.93 4.31L118.47 4.31L118.47 6.47L121.10 6.47L121.10 6.47Q121.32 6.47 121.32 6.71L121.32 6.71L121.32 8.09L121.32 8.09Q121.32 8.33 121.10 8.33L121.10 8.33L118.47 8.33L118.47 10.40L121.93 10.40L121.93 10.40Q122.06 10.40 122.10 10.45L122.10 10.45L122.10 10.45Q122.15 10.50 122.15 10.62L122.15 10.62L122.15 12.02L122.15 12.02Q122.15 12.25 121.93 12.25L121.93 12.25L116.77 12.25L116.77 12.25Q116.68 12.25 116.62 12.19L116.62 12.19L116.62 12.19Q116.56 12.13 116.56 12.02Z"></path></g><defs data-v-fde0c5aa=""><!----></defs><g data-v-fde0c5aa="" id="6f7dd585-3989-4cb0-a029-4a8afac5b7b1" stroke="none" fill="#E96D77" transform="matrix(1.498558995806503,0,0,1.498558995806503,126.02305606709595,105.03458410064393)"><path d="M32 0H0v32h32V0zm-2.812 19.938H23.53C22.109 22.648 19.272 24.5 16 24.5s-6.109-1.852-7.529-4.562H2.812v-7.875H8.47C9.891 9.352 12.728 7.5 16 7.5s6.109 1.852 7.529 4.562h5.658v7.876z"></path></g><!----></svg>